<svg width="98" height="76" viewBox="0 0 98 76" fill="none" xmlns="http://www.w3.org/2000/svg">
<path d="M43.5482 65.8465L43.5482 72.498C43.5482 72.929 43.1984 73.2788 42.7673 73.2788C42.3363 73.2788 41.9865 72.929 41.9865 72.498L41.9864 65.8465C41.9864 65.4155 42.3363 65.0657 42.7673 65.0657C43.1984 65.0657 43.5482 65.4155 43.5482 65.8465Z" fill="white"/>
<path d="M74.2535 28.0884C74.2535 28.5592 74.0747 29.0301 73.7163 29.3885L66.2301 36.8747C65.5117 37.5915 64.3451 37.5915 63.6282 36.8747L56.2514 29.4978L56.2514 50.4923C56.2514 50.9233 55.9023 51.2732 55.4705 51.2732C55.0387 51.2732 54.6896 50.9233 54.6896 50.4923L54.6896 27.612C54.6896 27.2966 54.8794 27.0108 55.1714 26.8905C55.4635 26.7695 55.7992 26.8366 56.0226 27.06L64.7324 35.7706C64.8409 35.8791 65.0174 35.8791 65.1267 35.7698L72.6114 28.2851C72.7207 28.1766 72.7199 28.0001 72.6114 27.8916L49.3563 4.63729C49.2907 4.5717 49.2071 4.55999 49.1486 4.56234C49.0314 4.55999 48.9479 4.5717 48.8823 4.63729L25.6272 27.8916C25.4867 28.0329 25.4836 28.1422 25.6272 28.2851L33.1119 35.7706C33.2204 35.8791 33.3969 35.8791 33.5054 35.7706L42.2145 27.0607C42.4378 26.8374 42.7736 26.7703 43.0656 26.8913C43.3577 27.0115 43.5474 27.2973 43.5474 27.6128L43.5474 58.9569C43.5474 59.3879 43.1976 59.7378 42.7665 59.7378C42.3355 59.7378 41.9857 59.3879 41.9857 58.9569L41.9857 29.4971L34.6088 36.8739C33.8912 37.5908 32.7238 37.5908 32.0069 36.8739L24.5215 29.3885C23.8258 28.692 23.8265 27.4801 24.5215 26.7867L47.7758 3.53237C48.1374 3.17004 48.6246 2.98185 49.1462 3.00137C49.6093 2.98185 50.0958 3.17004 50.4581 3.53237L73.7132 26.7867C74.0739 27.1459 74.2535 27.6167 74.2535 28.0884Z" fill="white"/>
<path d="M56.2514 56.9883L56.2514 63.4657C56.2514 63.8967 55.9023 64.2465 55.4705 64.2465C55.0387 64.2465 54.6896 63.8967 54.6896 63.4657L54.6896 56.9883C54.6896 56.5573 55.0387 56.2075 55.4705 56.2075C55.9023 56.2075 56.2514 56.5573 56.2514 56.9883Z" fill="white"/>
<path d="M49.8998 40.847L49.8998 67.573C49.8998 68.0041 49.55 68.3539 49.1189 68.3539C48.6879 68.3539 48.3381 68.0041 48.3381 67.573L48.3381 40.847C48.3381 40.416 48.6879 40.0661 49.1189 40.0661C49.55 40.0661 49.8998 40.416 49.8998 40.847Z" fill="white"/>
<path d="M0 0H98V76H0V0Z" fill="white" fill-opacity="0.3"/>
</svg>
