<svg width="20" height="24" viewBox="0 0 20 24" fill="none" xmlns="http://www.w3.org/2000/svg">
<path d="M1.46213 0C0.656136 0 0 0.641584 0 1.4297V22.5663C0 23.3545 0.656136 23.996 1.46213 23.996H14.516V21.1881C14.516 19.9485 15.5448 18.9426 16.8125 18.9426H20V1.4297C20 0.641584 19.3439 0 18.5379 0H1.46213ZM16.1887 13.0931H3.81126V12.1069H16.1847V13.0931H16.1887ZM16.1887 9.64752H3.81126V8.66139H16.1847V9.64752H16.1887ZM16.1887 6.20594H3.81126V5.2198H16.1847V6.20594H16.1887Z" fill="white"/>
<path d="M15.3503 21.1881V23.4574L19.3641 19.7544H16.8125C16.0065 19.7584 15.3503 20.3999 15.3503 21.1881Z" fill="white"/>
</svg>
