<svg width="104" height="104" viewBox="0 0 104 104" fill="none" xmlns="http://www.w3.org/2000/svg">
<circle cx="52" cy="52" r="52" fill="#E1B7BF"/>
<g clip-path="url(#clip0_16_1327)">
<path d="M68.3121 55.1387C68.1434 55.298 67.9654 55.4479 67.7874 55.5978C67.6094 55.7477 67.422 55.907 67.2346 56.0569C66.8505 56.3661 66.4569 56.6566 66.0541 56.9377L57.7434 74.018L56.085 64.1802L58.5398 60.2263C58.24 60.2919 57.9402 60.3481 57.6404 60.4043C56.8627 60.5449 56.0757 60.6386 55.2699 60.6854C54.8295 60.7135 54.3892 60.7323 53.9488 60.7323C52.2436 60.7323 50.5852 60.5261 48.9924 60.142L51.4847 64.1802L49.9294 74.2054L40.7193 56.1038C40.2977 55.7665 39.8854 55.4104 39.4825 55.045L39.3139 55.195C26.9932 65.8573 27.1618 84.5117 27.1712 85.2987L27.1805 85.964H79.9488L79.9301 85.2613C79.0494 63.7023 70.4296 56.5722 68.3121 55.1387Z" fill="#59437A"/>
<path d="M53.9488 19.6757C43.0335 19.6757 34.142 28.5578 34.142 39.4825C34.142 50.4072 43.0241 59.2894 53.9488 59.2894C64.8735 59.2894 73.7557 50.4072 73.7557 39.4825C73.7557 28.5578 64.8735 19.6757 53.9488 19.6757Z" fill="#59437A"/>
</g>
<defs>
<clipPath id="clip0_16_1327">
<rect width="52.7777" height="66.2883" fill="white" transform="translate(27.1712 19.6757)"/>
</clipPath>
</defs>
</svg>
