<svg width="118" height="118" viewBox="0 0 118 118" fill="none" xmlns="http://www.w3.org/2000/svg">
<circle cx="59" cy="59" r="59" fill="#E1B7BF"/>
<g clip-path="url(#clip0_16_1334)">
<g clip-path="url(#clip1_16_1334)">
<path d="M31.4863 48.888C30.3032 48.6188 29.0125 48.9418 28.0892 49.8658C26.6551 51.3012 26.6551 53.6247 28.0892 55.069C28.0982 55.078 28.1251 55.087 28.143 55.1049C28.1341 55.1139 28.1251 55.1139 28.1251 55.1139L35.0358 62.0306L45.9171 51.1397L31.4953 48.8341C31.4863 48.8521 31.4863 48.87 31.4863 48.888Z" fill="#59437A"/>
<path d="M71.2024 88.2261C71.2204 88.235 71.2473 88.2261 71.2742 88.2351L69.0871 74.4286L58.2595 85.2746L64.8923 91.9132C64.9013 91.9042 64.9282 91.8863 64.9371 91.8683C65.0357 91.9849 65.1074 92.1105 65.215 92.2182C66.6491 93.6536 68.9706 93.6446 70.4047 92.2092C71.4803 91.1327 71.7402 89.5628 71.2024 88.2261Z" fill="#59437A"/>
<path d="M58.9049 64.3989L55.8843 61.3757C55.3734 60.8643 54.7011 60.6042 54.0289 60.6042C53.3566 60.6042 52.6844 60.8643 52.1645 61.3757L46.6073 66.9378L45.7648 67.781C45.2539 68.2924 44.9939 68.9652 44.9939 69.647C44.9939 70.3198 45.2539 70.9927 45.7648 71.504L48.7854 74.5273C49.2963 75.0386 49.9685 75.2988 50.6408 75.2988C51.322 75.2988 51.9853 75.0386 52.5051 74.5273L58.9138 68.113C59.4247 67.6016 59.6847 66.9288 59.6847 66.247C59.6757 65.5831 59.4158 64.9103 58.9049 64.3989Z" fill="#59437A"/>
<path d="M86.0276 54.7461L86.0545 54.773L93.9063 31.197C94.0229 30.9459 94.1035 30.6857 94.1573 30.4166L94.1663 30.4076C94.3904 29.2862 94.0766 28.0661 93.1982 27.196C92.293 26.2899 91.0202 25.9849 89.855 26.263V26.254L89.8101 26.263C89.6309 26.3078 89.4695 26.3616 89.2992 26.4334L66.3533 34.014C65.5556 34.1934 64.7848 34.5163 64.1573 35.1353L47.8711 51.4358L36.1562 63.152L34.1753 65.1346C32.4454 66.8749 32.4454 69.6919 34.1843 71.4322L36.8732 74.1236L36.192 75.4513L44.7609 84.0276L46.0874 83.3548L48.8571 86.1268C50.596 87.8672 53.4104 87.8672 55.1403 86.1268L57.1212 84.1442L68.7734 72.4819L85.1134 56.1276C85.5257 55.706 85.8125 55.2395 86.0276 54.7461ZM53.3208 75.3526C51.8418 76.8328 49.4397 76.8328 47.9608 75.3526L44.9401 72.3204C43.4612 70.8402 43.4612 68.4269 44.9401 66.9557L45.7827 66.1124L51.3399 60.5503C52.8188 59.0701 55.221 59.0701 56.6999 60.5503L59.7205 63.5736C61.1995 65.0538 61.1995 67.4581 59.7205 68.9383L53.3208 75.3526ZM64.7848 55.4817C62.1137 52.8173 62.1227 48.4932 64.7848 45.8288C67.4468 43.1644 71.7582 43.1644 74.4292 45.8288C77.0913 48.4932 77.0913 52.8083 74.4292 55.4727C71.7671 58.1461 67.4468 58.1461 64.7848 55.4817Z" fill="#59437A"/>
</g>
</g>
<defs>
<clipPath id="clip0_16_1334">
<rect width="66.9423" height="83.9615" fill="white" transform="translate(27.2308 18.1538)"/>
</clipPath>
<clipPath id="clip1_16_1334">
<rect width="67.2243" height="67.1304" fill="white" transform="translate(27.0137 26.1643)"/>
</clipPath>
</defs>
</svg>
