<svg width="104" height="104" viewBox="0 0 104 104" fill="none" xmlns="http://www.w3.org/2000/svg">
<circle cx="52" cy="52" r="52" fill="#E1B7BF"/>
<g clip-path="url(#clip0_17_10)">
<g clip-path="url(#clip1_17_10)">
<path d="M71.9605 26.4775C68.6223 26.4775 65.9056 29.1998 65.9056 32.5447C65.9056 35.8896 68.6223 38.6118 71.9605 38.6118C75.2987 38.6118 78.0154 35.8896 78.0154 32.5447C78.0154 29.1918 75.2987 26.4775 71.9605 26.4775Z" fill="#59437A"/>
<path d="M72.072 21.8394C64.36 21.8394 58.082 28.13 58.082 35.8576C58.082 37.2945 58.2971 38.6836 58.7034 39.9928L54.5287 41.9966C51.342 37.1189 45.8527 33.8858 39.6066 33.8858C29.7833 33.8858 21.7924 41.8928 21.7924 51.7359C21.7924 61.579 29.7833 69.586 39.6066 69.586C44.1796 69.586 48.3543 67.8537 51.5093 65.0037L54.0746 67.1352C52.3219 70.073 51.9952 73.7931 53.5249 77.13C55.9867 82.5026 62.3523 84.8656 67.7141 82.3988C73.0759 79.932 75.4341 73.5536 72.9723 68.181C70.5105 62.8084 64.1449 60.4454 58.7751 62.9122C57.9466 63.2953 57.1897 63.7743 56.5046 64.3252L53.995 62.2336C56.146 59.2879 57.4208 55.6556 57.4208 51.7279C57.4208 49.6204 57.0543 47.5927 56.3771 45.7087L60.504 43.7209C63.0215 47.425 67.2679 49.8599 72.072 49.8599C79.7841 49.8599 86.062 43.5692 86.062 35.8416C86.062 28.13 79.7841 21.8394 72.072 21.8394ZM59.8268 65.1953C63.9377 63.3033 68.8215 65.1155 70.7097 69.2347C72.1995 72.4838 71.3948 76.2039 68.9729 78.5589C68.3276 75.4855 66.9413 74.3678 66.543 74.1044C66.5031 74.1443 66.4633 74.1762 66.4234 74.2082C66.3836 74.2481 66.3438 74.28 66.296 74.3199C66.2083 74.3918 66.1207 74.4557 66.0251 74.5275L64.1608 78.4711L63.7545 76.2199L64.3042 75.3098C64.2325 75.3258 64.1688 75.3418 64.0971 75.3498C63.9218 75.3817 63.7386 75.4056 63.5553 75.4216C63.4518 75.4296 63.3562 75.4376 63.2526 75.4376C62.8622 75.4376 62.4798 75.3977 62.1133 75.3098L62.6949 76.2279L62.3762 78.519L60.2251 74.3918C60.1295 74.312 60.0339 74.2321 59.9383 74.1523L59.8985 74.1842C58.4963 75.4216 57.8191 77.122 57.4925 78.519C56.7993 77.8405 56.2177 77.0262 55.7875 76.0922C53.9073 71.9729 55.7158 67.0873 59.8268 65.1953ZM44.7134 57.0047C44.5939 57.1484 42.2994 58.6572 42.2994 58.6572L43.4307 60.2059L39.8456 63.0239L39.8536 63.0399L39.8456 63.0319L39.8376 63.0399L39.8456 63.0239L36.2605 60.2059L37.3918 58.6572C37.3918 58.6572 35.0893 57.1564 34.9778 57.0047C34.7706 56.7492 36.0055 55.5598 36.0055 55.5598L39.8536 63.008L43.7016 55.5598C43.6857 55.5598 44.9206 56.7492 44.7134 57.0047ZM48.9837 61.6828C48.5216 59.4156 47.7967 57.795 47.0956 56.6774C47.6373 54.1707 48.0755 50.9855 47.7648 48.7502C47.717 48.407 47.6692 48.0796 47.6134 47.7683C47.5975 47.5129 47.5736 47.2574 47.5258 46.986C47.3585 46.02 47.0717 45.094 46.6733 44.2398C46.0598 42.723 45.2472 41.6772 44.1478 40.9827C42.9926 40.0886 41.5824 39.5537 39.9731 39.5537C39.1684 39.5537 38.3956 39.6815 37.6706 39.921C35.416 40.384 34.4281 41.781 34.0616 42.2999C33.727 42.7789 33.4481 43.3377 33.2091 43.9604C32.986 44.4553 32.8187 44.9822 32.7072 45.5331C32.3726 46.7944 32.1336 48.2074 31.8866 49.6603C31.4803 52.0313 31.058 54.49 30.2135 56.5577C30.1896 56.6215 30.1976 56.7013 30.2454 56.7492C30.2932 56.8051 30.3569 56.8291 30.4286 56.8211C31.3209 56.6535 31.9981 56.4219 32.5638 55.8551C32.1336 56.9967 30.5003 57.8429 30.4764 57.8509C30.4127 57.8828 30.3808 57.9467 30.3729 58.0106C30.3649 58.0824 30.3968 58.1463 30.4525 58.1782C30.4844 58.2022 30.7872 58.4017 31.2811 58.6492C30.8031 59.695 30.4764 60.7408 30.2534 61.7067C27.6083 59.208 25.9512 55.6635 25.9512 51.7439C25.9512 44.1919 32.0778 38.0529 39.6146 38.0529C47.1513 38.0529 53.2779 44.1919 53.2779 51.7439C53.27 55.6556 51.6208 59.1841 48.9837 61.6828ZM79.569 43.5373C78.7802 39.2664 76.8841 37.7017 76.3503 37.3345C76.2945 37.3824 76.2467 37.4303 76.191 37.4782C76.1352 37.5261 76.0794 37.574 76.0237 37.6219C75.9041 37.7176 75.7846 37.8055 75.6651 37.8933L73.1237 43.1222L72.6218 40.1046L73.3706 38.8912C73.275 38.9071 73.1874 38.9311 73.0918 38.947C72.8528 38.987 72.6138 39.0189 72.3668 39.0349C72.2314 39.0428 72.0959 39.0508 71.9605 39.0508C71.4426 39.0508 70.9328 38.987 70.4468 38.8672L71.2116 40.1046L70.7336 43.1701L67.9212 37.6298C67.7938 37.5261 67.6663 37.4223 67.5468 37.3025L67.491 37.3504C65.5869 39.0029 64.6548 41.2781 64.2086 43.1541C62.432 41.2382 61.3485 38.6676 61.3485 35.8576C61.3485 29.9342 66.1605 25.1044 72.08 25.1044C77.9995 25.1044 82.8115 29.9262 82.8115 35.8576C82.8036 38.8592 81.5607 41.5814 79.569 43.5373Z" fill="#59437A"/>
<path d="M63.1649 66.0016C60.6633 66.0256 58.6477 68.0932 58.6795 70.5999C58.7034 73.1065 60.7589 75.1262 63.2606 75.0943C65.7622 75.0704 67.7778 73.0107 67.746 70.5041C67.7221 67.9894 65.6666 65.9777 63.1649 66.0016Z" fill="#59437A"/>
<path d="M39.8376 63.0161L39.8457 63.0243V63.0161V63.0079L39.8376 63.0161Z" fill="#59437A"/>
</g>
</g>
<defs>
<clipPath id="clip0_17_10">
<rect width="64" height="80" fill="white" transform="translate(22 13)"/>
</clipPath>
<clipPath id="clip1_17_10">
<rect width="64.2696" height="61.5493" fill="white" transform="translate(21.7924 21.8394)"/>
</clipPath>
</defs>
</svg>
