<svg width="40" height="39" viewBox="0 0 40 39" fill="none" xmlns="http://www.w3.org/2000/svg">
<g clip-path="url(#clip0_19_408)">
<path d="M20.2568 38.2166C9.57088 38.2166 0.908264 29.7392 0.908264 19.2819C0.908264 8.8245 9.57088 0.347168 20.2568 0.347168C30.9427 0.347168 39.6054 8.8245 39.6054 19.2819C39.6054 29.7392 30.9427 38.2166 20.2568 38.2166Z" fill="#C262AF"/>
<path d="M20.2568 10.7746C23.0935 10.7746 23.429 10.7846 24.5475 10.8343C25.5845 10.8841 26.1437 11.0532 26.5199 11.1925C27.0181 11.3816 27.3638 11.6104 27.74 11.9686C28.1162 12.3368 28.3399 12.6751 28.5331 13.1626C28.6754 13.5308 28.8483 14.078 28.8991 15.0929C28.9499 16.1874 28.9601 16.5157 28.9601 19.2918C28.9601 22.0678 28.9499 22.3961 28.8991 23.4906C28.8483 24.5055 28.6754 25.0528 28.5331 25.4209C28.3399 25.9085 28.106 26.2468 27.74 26.6149C27.374 26.9731 27.0181 27.202 26.5199 27.391C26.1437 27.5303 25.5845 27.6994 24.5475 27.7492C23.429 27.7989 23.0935 27.8089 20.2568 27.8089C17.4201 27.8089 17.0846 27.7989 15.9662 27.7492C14.9291 27.6994 14.3699 27.5303 13.9937 27.391C13.4955 27.202 13.1498 26.9731 12.7736 26.6149C12.4076 26.2468 12.1737 25.9085 11.9806 25.4209C11.8382 25.0528 11.6654 24.5055 11.6145 23.4906C11.5637 22.3961 11.5535 22.0678 11.5535 19.2918C11.5535 16.5157 11.5637 16.1874 11.6145 15.0929C11.6654 14.078 11.8382 13.5308 11.9806 13.1626C12.1737 12.6751 12.4076 12.3368 12.7736 11.9686C13.1498 11.6005 13.4955 11.3816 13.9937 11.1925C14.3699 11.0532 14.9291 10.8841 15.9662 10.8343C17.0846 10.7846 17.4201 10.7746 20.2568 10.7746ZM20.2568 8.90405C17.3794 8.90405 17.0134 8.914 15.8848 8.96375C14.7563 9.0135 13.9835 9.1926 13.3125 9.4513C12.6109 9.71995 12.0212 10.0682 11.4315 10.6453C10.8418 11.2224 10.4758 11.7995 10.2114 12.486C9.94708 13.1427 9.77423 13.8989 9.71323 15.0034C9.66239 16.1078 9.65222 16.466 9.65222 19.2818C9.65222 22.0976 9.66239 22.4558 9.71323 23.5603C9.76406 24.6647 9.94708 25.4209 10.2114 26.0776C10.4859 26.7642 10.8418 27.3412 11.4315 27.9183C12.0212 28.4954 12.6109 28.8536 13.3125 29.1123C13.9835 29.371 14.7563 29.5402 15.8848 29.5999C17.0134 29.6496 17.3794 29.6596 20.2568 29.6596C23.1342 29.6596 23.5002 29.6496 24.6288 29.5999C25.7574 29.5501 26.5301 29.371 27.2011 29.1123C27.9027 28.8437 28.4924 28.4954 29.0821 27.9183C29.6718 27.3412 30.0378 26.7642 30.3022 26.0776C30.5665 25.4209 30.7394 24.6647 30.8004 23.5603C30.8512 22.4558 30.8614 22.0976 30.8614 19.2818C30.8614 16.466 30.8512 16.1078 30.8004 15.0034C30.7496 13.8989 30.5665 13.1427 30.3022 12.486C30.0277 11.7995 29.6718 11.2224 29.0821 10.6453C28.4924 10.0682 27.9027 9.71 27.2011 9.4513C26.5301 9.1926 25.7574 9.02345 24.6288 8.96375C23.5002 8.914 23.1342 8.90405 20.2568 8.90405Z" fill="white"/>
<path d="M20.2568 13.9487C17.2473 13.9487 14.8071 16.3367 14.8071 19.2819C14.8071 22.2271 17.2473 24.615 20.2568 24.615C23.2664 24.615 25.7065 22.2271 25.7065 19.2819C25.7065 16.3367 23.2664 13.9487 20.2568 13.9487ZM20.2568 22.7445C18.3047 22.7445 16.7186 21.1923 16.7186 19.2819C16.7186 17.3715 18.3047 15.8193 20.2568 15.8193C22.209 15.8193 23.7951 17.3715 23.7951 19.2819C23.7951 21.1923 22.209 22.7445 20.2568 22.7445Z" fill="white"/>
<path d="M27.191 13.7398C27.191 14.4264 26.6216 14.9836 25.92 14.9836C25.2185 14.9836 24.6491 14.4264 24.6491 13.7398C24.6491 13.0533 25.2185 12.4961 25.92 12.4961C26.6216 12.4961 27.191 13.0533 27.191 13.7398Z" fill="white"/>
</g>
<defs>
<clipPath id="clip0_19_408">
<rect width="38.6971" height="37.8694" fill="white" transform="translate(0.908264 0.347168)"/>
</clipPath>
</defs>
</svg>
