<svg width="40" height="39" viewBox="0 0 40 39" fill="none" xmlns="http://www.w3.org/2000/svg">
<g clip-path="url(#clip0_60_42)">
<path d="M19.6833 38.2117C8.9974 38.2117 0.334785 29.7343 0.334785 19.277C0.334785 8.81961 8.9974 0.342285 19.6833 0.342285C30.3693 0.342285 39.0319 8.81961 39.0319 19.277C39.0319 29.7343 30.3693 38.2117 19.6833 38.2117Z" fill="#C262AF"/>
<path d="M14.9148 15.0583H10.9089V27.7146H14.9148V15.0583Z" fill="white"/>
<path d="M12.8915 13.3967C14.2031 13.3967 15.2605 12.3519 15.2605 11.0584C15.2605 9.76496 14.2031 8.72021 12.8915 8.72021C11.5799 8.72021 10.5225 9.76496 10.5225 11.0584C10.5225 12.3519 11.5799 13.3967 12.8915 13.3967Z" fill="white"/>
<path d="M21.3203 21.0681C21.3203 19.2871 22.154 18.2324 23.7605 18.2324C25.2347 18.2324 25.9363 19.2473 25.9363 21.0681C25.9363 22.889 25.9363 27.7147 25.9363 27.7147H29.9219C29.9219 27.7147 29.9219 23.088 29.9219 19.6951C29.9219 16.3021 27.9596 14.6604 25.2144 14.6604C22.4692 14.6604 21.3203 16.7499 21.3203 16.7499V15.0484H17.477V27.7047H21.3203C21.3203 27.7147 21.3203 23.0183 21.3203 21.0681Z" fill="white"/>
</g>
<defs>
<clipPath id="clip0_60_42">
<rect width="38.6971" height="37.8694" fill="white" transform="translate(0.334785 0.342285)"/>
</clipPath>
</defs>
</svg>
