<svg xmlns="http://www.w3.org/2000/svg" width="518" height="127" viewBox="0 0 518 127">
  <defs>
    <style>
      .cls-1 {
        fill: #59437a;
        fill-rule: evenodd;
      }
    </style>
  </defs>
  <path id="Color_Fill_1" data-name="Color Fill 1" class="cls-1" d="M83.131,10.4q0-6.428-2.634-8.666Q78.118-.272,71.548-0.272H39.886q-11.017,0-11.017,9.884V43.369q0,10.9,9.856,10.9H72.482q10.648,0,10.648-10.224V10.4ZM72.482,53.451H38.725q-9.063,0-9.063-10.082V9.611q0-9.062,10.224-9.063H71.548a19.568,19.568,0,0,1,5.975.708,6.3,6.3,0,0,1,4.191,3.965,16.388,16.388,0,0,1,.623,5.183V44.049q0,9.4-9.856,9.4h0Zm-13-27.3q-2.521-.991-5.523-2.067-3.512-1.274-3.512-4.248,0-4.531,5.438-4.531,5.975,0,5.976,5.438l3.059-.283a7.975,7.975,0,0,0-2.549-6.372,9.67,9.67,0,0,0-6.627-2.124,8.85,8.85,0,0,0-6.174,2.152,7.624,7.624,0,0,0-2.464,5.976q0,5.183,5.664,7.222l6.315,2.266a4.481,4.481,0,0,1,3.2,4.588q0,5.3-6.6,5.3a6.321,6.321,0,0,1-3.4-.878q-2.974-1.841-2.974-6.287l-3.172.34a11.5,11.5,0,0,0,2.52,7.108,8.39,8.39,0,0,0,6.74,3.059q10.223,0,10.224-9.062,0-5.183-6.145-7.59h0ZM141.131,10.4q0-6.428-2.634-8.666-2.379-2.011-8.949-2.011H97.886q-11.017,0-11.017,9.884V43.369q0,10.9,9.855,10.9h33.757q10.648,0,10.649-10.224V10.4ZM130.482,53.451H96.725q-9.063,0-9.062-10.082V9.611q0-9.062,10.224-9.063h31.662a19.565,19.565,0,0,1,5.975.708,6.3,6.3,0,0,1,4.192,3.965,16.391,16.391,0,0,1,.623,5.183V44.049q0,9.4-9.856,9.4h0ZM123.091,17a10.54,10.54,0,0,0-17.984,0,19.1,19.1,0,0,0-2.69,10.422,18.814,18.814,0,0,0,2.747,10.337,10.521,10.521,0,0,0,17.927.057,18.9,18.9,0,0,0,2.719-10.394A19.04,19.04,0,0,0,123.091,17h0ZM120.74,35.355a7.309,7.309,0,0,1-13.14,0,16.182,16.182,0,0,1-1.841-7.93,16.7,16.7,0,0,1,1.756-8.1,7.213,7.213,0,0,1,6.74-4.021q4.106,0,6.372,4.135a16.052,16.052,0,0,1,1.841,7.816,17.033,17.033,0,0,1-1.728,8.1h0ZM199.131,10.4q0-6.428-2.634-8.666-2.379-2.011-8.949-2.011H155.886q-11.018,0-11.017,9.884V43.369q0,10.9,9.856,10.9h33.757q10.648,0,10.649-10.224V10.4ZM188.482,53.451H154.725q-9.063,0-9.063-10.082V9.611q0-9.062,10.224-9.063h31.662a19.565,19.565,0,0,1,5.975.708,6.3,6.3,0,0,1,4.192,3.965,16.391,16.391,0,0,1,.623,5.183V44.049q0,9.4-9.856,9.4h0ZM180.411,12.5H163.844V42.435h3.2V28.869H178.6V25.386H167.044v-9.4h13.367V12.5Zm76.72-2.1q0-6.428-2.634-8.666-2.379-2.011-8.949-2.011H213.886q-11.018,0-11.017,9.884V43.369q0,10.9,9.856,10.9h33.757q10.648,0,10.649-10.224V10.4ZM246.482,53.451H212.725q-9.063,0-9.063-10.082V9.611q0-9.062,10.224-9.063h31.662a19.565,19.565,0,0,1,5.975.708,6.3,6.3,0,0,1,4.192,3.965,16.391,16.391,0,0,1,.623,5.183V44.049q0,9.4-9.856,9.4h0ZM239.771,12.5h-19.4v3.483h8.1V42.435h3.2V15.983h8.1V12.5Zm75.36-2.1q0-6.428-2.634-8.666-2.379-2.011-8.949-2.011H271.886q-11.018,0-11.017,9.884V43.369q0,10.9,9.856,10.9h33.757q10.648,0,10.649-10.224V10.4ZM304.482,53.451H270.725q-9.063,0-9.063-10.082V9.611q0-9.062,10.224-9.063h31.662a19.565,19.565,0,0,1,5.975.708,6.3,6.3,0,0,1,4.192,3.965,16.391,16.391,0,0,1,.623,5.183V44.049q0,9.4-9.856,9.4h0ZM300.348,12.5l-5.013,23.817L289.9,12.5h-3.879l-5.551,23.817L275.426,12.5h-3.342l6.542,29.935h3.228l5.976-25.913,5.976,25.913h3.058L303.576,12.5h-3.228Zm72.783-2.1q0-6.428-2.634-8.666-2.379-2.011-8.949-2.011H329.886q-11.018,0-11.017,9.884V43.369q0,10.9,9.856,10.9h33.757q10.648,0,10.649-10.224V10.4ZM362.482,53.451H328.725q-9.063,0-9.063-10.082V9.611q0-9.062,10.224-9.063h31.662a19.565,19.565,0,0,1,5.975.708,6.3,6.3,0,0,1,4.192,3.965,16.391,16.391,0,0,1,.623,5.183V44.049q0,9.4-9.856,9.4h0ZM347.558,12.5H344.1l-9.346,29.935h3.37l2.747-9.034h10.167l2.917,9.034h3.625Zm-5.834,17.7,4.163-13.4,4.191,13.4h-8.354Zm89.407-19.8q0-6.428-2.634-8.666-2.379-2.011-8.949-2.011H387.886q-11.018,0-11.017,9.884V43.369q0,10.9,9.856,10.9h33.757q10.648,0,10.649-10.224V10.4ZM420.482,53.451H386.725q-9.063,0-9.063-10.082V9.611q0-9.062,10.224-9.063h31.662a19.565,19.565,0,0,1,5.975.708,6.3,6.3,0,0,1,4.192,3.965,16.391,16.391,0,0,1,.623,5.183V44.049q0,9.4-9.856,9.4h0Zm-9.374-19.116a22.474,22.474,0,0,0-2.1-3.144q-1.842-2.407-2.634-2.407V28.643q6.938-1.047,6.938-7.93,0-8.213-8.751-8.213h-10.79V42.435h3.2V29.209h4.842q2.662,0,4.843,4.248l4.588,8.978h4.191Zm-6.258-8.609h-7.873V15.983h7.759q5.24,0,5.24,4.73,0,5.013-5.126,5.013h0ZM489.131,10.4q0-6.428-2.634-8.666-2.379-2.011-8.949-2.011H445.886q-11.018,0-11.017,9.884V43.369q0,10.9,9.856,10.9h33.757q10.648,0,10.649-10.224V10.4ZM478.482,53.451H444.725q-9.063,0-9.063-10.082V9.611q0-9.062,10.224-9.063h31.662a19.565,19.565,0,0,1,5.975.708,6.3,6.3,0,0,1,4.192,3.965,16.391,16.391,0,0,1,.623,5.183V44.049q0,9.4-9.856,9.4h0Zm-7.306-14.5H456.081V28.728h13.565V25.244H456.081V15.983h14.557V12.5H452.881V42.435h18.3V38.951ZM54.131,80q0-6.429-2.634-8.666-2.379-2.011-8.949-2.011H10.886q-11.017,0-11.017,9.884v33.758q0,10.9,9.855,10.9H43.482q10.648,0,10.648-10.223V80ZM43.482,123.051H9.725q-9.063,0-9.063-10.082V79.211q0-9.062,10.224-9.062H42.548a19.569,19.569,0,0,1,5.976.708,6.3,6.3,0,0,1,4.191,3.965A16.388,16.388,0,0,1,53.338,80v33.645q0,9.4-9.855,9.4h0ZM26.547,82.1H17.06v29.935h9.487q10.705,0,10.705-15.18,0-14.755-10.705-14.755h0Zm6.089,22.741q-1.784,3.711-6.514,3.71H20.26V85.583h6.174q7.5,0,7.5,11.272,0,5.3-1.3,7.986h0ZM112.131,80q0-6.429-2.634-8.666-2.379-2.011-8.949-2.011H68.886q-11.017,0-11.017,9.884v33.758q0,10.9,9.855,10.9h33.757q10.649,0,10.649-10.223V80Zm-10.649,43.047H67.725q-9.063,0-9.062-10.082V79.211q0-9.062,10.224-9.062h31.662a19.565,19.565,0,0,1,5.975.708,6.3,6.3,0,0,1,4.192,3.965A16.391,16.391,0,0,1,111.338,80v33.645q0,9.4-9.856,9.4h0Zm-7.306-14.5H79.081V98.328H92.647V94.844H79.081V85.583H93.638V82.1H75.881v29.935H94.176v-3.484ZM170.131,80q0-6.429-2.634-8.666-2.379-2.011-8.949-2.011H126.886q-11.017,0-11.017,9.884v33.758q0,10.9,9.856,10.9h33.757q10.648,0,10.649-10.223V80Zm-10.649,43.047H125.725q-9.063,0-9.063-10.082V79.211q0-9.062,10.224-9.062h31.662a19.565,19.565,0,0,1,5.975.708,6.3,6.3,0,0,1,4.192,3.965A16.391,16.391,0,0,1,169.338,80v33.645q0,9.4-9.856,9.4h0ZM150.845,82.1L143,108.438,135.3,82.1h-3.512l9.487,29.935h3.314L154.215,82.1h-3.37ZM228.131,80q0-6.429-2.634-8.666-2.379-2.011-8.949-2.011H184.886q-11.018,0-11.017,9.884v33.758q0,10.9,9.856,10.9h33.757q10.648,0,10.649-10.223V80Zm-10.649,43.047H183.725q-9.063,0-9.063-10.082V79.211q0-9.062,10.224-9.062h31.662a19.565,19.565,0,0,1,5.975.708,6.3,6.3,0,0,1,4.192,3.965A16.391,16.391,0,0,1,227.338,80v33.645q0,9.4-9.856,9.4h0Zm-7.306-14.5H195.081V98.328h13.565V94.844H195.081V85.583h14.557V82.1H191.881v29.935h18.295v-3.484ZM286.131,80q0-6.429-2.634-8.666-2.379-2.011-8.949-2.011H242.886q-11.018,0-11.017,9.884v33.758q0,10.9,9.856,10.9h33.757q10.648,0,10.649-10.223V80Zm-10.649,43.047H241.725q-9.063,0-9.063-10.082V79.211q0-9.062,10.224-9.062h31.662a19.565,19.565,0,0,1,5.975.708,6.3,6.3,0,0,1,4.192,3.965A16.391,16.391,0,0,1,285.338,80v33.645q0,9.4-9.856,9.4h0Zm-7.561-14.5H255.828V82.1h-3.2v29.935h15.293v-3.484ZM344.131,80q0-6.429-2.634-8.666-2.379-2.011-8.949-2.011H300.886q-11.018,0-11.017,9.884v33.758q0,10.9,9.856,10.9h33.757q10.648,0,10.649-10.223V80Zm-10.649,43.047H299.725q-9.063,0-9.063-10.082V79.211q0-9.062,10.224-9.062h31.662a19.565,19.565,0,0,1,5.975.708,6.3,6.3,0,0,1,4.192,3.965A16.391,16.391,0,0,1,343.338,80v33.645q0,9.4-9.856,9.4h0ZM326.091,86.6a10.54,10.54,0,0,0-17.984,0,19.1,19.1,0,0,0-2.69,10.422,18.816,18.816,0,0,0,2.747,10.337,10.52,10.52,0,0,0,17.927.056,18.894,18.894,0,0,0,2.719-10.393A19.04,19.04,0,0,0,326.091,86.6h0Zm-2.351,18.351a7.308,7.308,0,0,1-13.14,0,16.179,16.179,0,0,1-1.841-7.929,16.7,16.7,0,0,1,1.756-8.1,7.213,7.213,0,0,1,6.74-4.022q4.106,0,6.372,4.135a16.052,16.052,0,0,1,1.841,7.816,17.031,17.031,0,0,1-1.728,8.1h0ZM402.131,80q0-6.429-2.634-8.666-2.379-2.011-8.949-2.011H358.886q-11.018,0-11.017,9.884v33.758q0,10.9,9.856,10.9h33.757q10.648,0,10.649-10.223V80Zm-10.649,43.047H357.725q-9.063,0-9.063-10.082V79.211q0-9.062,10.224-9.062h31.662a19.565,19.565,0,0,1,5.975.708,6.3,6.3,0,0,1,4.192,3.965A16.391,16.391,0,0,1,401.338,80v33.645q0,9.4-9.856,9.4h0Zm-9.289-38.572a8.648,8.648,0,0,0-6.4-2.379h-9.884v29.935h3.2V99.942h6.259a9.26,9.26,0,0,0,6.74-2.393,8.864,8.864,0,0,0,2.464-6.669A8.649,8.649,0,0,0,382.193,84.479Zm-6.712,11.98h-6.372V85.583h6.684q5.409,0,5.409,5.409,0,5.466-5.721,5.466h0ZM460.131,80q0-6.429-2.634-8.666-2.379-2.011-8.949-2.011H416.886q-11.018,0-11.017,9.884v33.758q0,10.9,9.856,10.9h33.757q10.648,0,10.649-10.223V80Zm-10.649,43.047H415.725q-9.063,0-9.063-10.082V79.211q0-9.062,10.224-9.062h31.662a19.565,19.565,0,0,1,5.975.708,6.3,6.3,0,0,1,4.192,3.965A16.391,16.391,0,0,1,459.338,80v33.645q0,9.4-9.856,9.4h0Zm-7.306-14.5H427.081V98.328h13.565V94.844H427.081V85.583h14.557V82.1H423.881v29.935h18.3v-3.484ZM518.131,80q0-6.429-2.634-8.666-2.379-2.011-8.949-2.011H474.886q-11.018,0-11.017,9.884v33.758q0,10.9,9.856,10.9h33.757q10.648,0,10.649-10.223V80Zm-10.649,43.047H473.725q-9.063,0-9.063-10.082V79.211q0-9.062,10.224-9.062h31.662a19.565,19.565,0,0,1,5.975.708,6.3,6.3,0,0,1,4.192,3.965A16.391,16.391,0,0,1,517.338,80v33.645q0,9.4-9.856,9.4h0Zm-9.374-19.116a22.515,22.515,0,0,0-2.1-3.144q-1.842-2.406-2.634-2.407V98.243q6.938-1.047,6.938-7.93,0-8.213-8.751-8.213h-10.79v29.935h3.2V98.809h4.842q2.662,0,4.843,4.248l4.588,8.978h4.191Zm-6.258-8.609h-7.873V85.583h7.759q5.24,0,5.24,4.73,0,5.013-5.126,5.013h0Z"/>
</svg>
