<svg width="329" height="156" viewBox="0 0 329 156" fill="none" xmlns="http://www.w3.org/2000/svg">
<path d="M20.1797 34.9297C20.1797 34.3984 20.1016 33.9219 19.9453 33.5C19.7891 33.0625 19.5 32.6562 19.0781 32.2812C18.6562 31.9062 18.0469 31.5312 17.25 31.1562C16.4688 30.7656 15.4375 30.3594 14.1562 29.9375C12.6562 29.4375 11.2109 28.875 9.82031 28.25C8.42969 27.6094 7.1875 26.8672 6.09375 26.0234C5 25.1641 4.13281 24.1641 3.49219 23.0234C2.85156 21.8672 2.53125 20.5234 2.53125 18.9922C2.53125 17.5234 2.85938 16.2031 3.51562 15.0312C4.17188 13.8437 5.08594 12.8359 6.25781 12.0078C7.44531 11.1641 8.83594 10.5234 10.4297 10.0859C12.0234 9.63281 13.7656 9.40625 15.6562 9.40625C18.1562 9.40625 20.3594 9.84375 22.2656 10.7188C24.1875 11.5781 25.6875 12.8047 26.7656 14.3984C27.8594 15.9766 28.4062 17.8438 28.4062 20H20.2266C20.2266 19.1406 20.0469 18.3828 19.6875 17.7266C19.3438 17.0703 18.8203 16.5547 18.1172 16.1797C17.4141 15.8047 16.5312 15.6172 15.4688 15.6172C14.4375 15.6172 13.5703 15.7734 12.8672 16.0859C12.1641 16.3984 11.6328 16.8203 11.2734 17.3516C10.9141 17.8672 10.7344 18.4375 10.7344 19.0625C10.7344 19.5781 10.875 20.0469 11.1562 20.4688C11.4531 20.875 11.8672 21.2578 12.3984 21.6172C12.9453 21.9766 13.6016 22.3203 14.3672 22.6484C15.1484 22.9766 16.0234 23.2969 16.9922 23.6094C18.8047 24.1875 20.4141 24.8359 21.8203 25.5547C23.2422 26.2578 24.4375 27.0625 25.4062 27.9688C26.3906 28.8594 27.1328 29.875 27.6328 31.0156C28.1484 32.1562 28.4062 33.4453 28.4062 34.8828C28.4062 36.4141 28.1094 37.7734 27.5156 38.9609C26.9219 40.1484 26.0703 41.1562 24.9609 41.9844C23.8516 42.7969 22.5234 43.4141 20.9766 43.8359C19.4297 44.2578 17.7031 44.4688 15.7969 44.4688C14.0469 44.4688 12.3203 44.25 10.6172 43.8125C8.92969 43.3594 7.39844 42.6719 6.02344 41.75C4.64844 40.8125 3.54688 39.6172 2.71875 38.1641C1.90625 36.6953 1.5 34.9531 1.5 32.9375H9.75C9.75 33.9375 9.88281 34.7812 10.1484 35.4688C10.4141 36.1562 10.8047 36.7109 11.3203 37.1328C11.8359 37.5391 12.4688 37.8359 13.2188 38.0234C13.9688 38.1953 14.8281 38.2812 15.7969 38.2812C16.8438 38.2812 17.6875 38.1328 18.3281 37.8359C18.9688 37.5234 19.4375 37.1172 19.7344 36.6172C20.0312 36.1016 20.1797 35.5391 20.1797 34.9297ZM40.4541 38.5859L45.4463 18.6406H53.7666L45.4697 44H40.5478L40.4541 38.5859ZM37.5009 18.6406L42.4228 38.5859L42.3759 44H37.4306L29.1572 18.6406H37.5009ZM63.4941 18.6406V44H55.5722V18.6406H63.4941ZM55.1034 12.1016C55.1034 10.9766 55.5097 10.0547 56.3222 9.33594C57.1347 8.61719 58.1894 8.25781 59.4863 8.25781C60.7831 8.25781 61.8378 8.61719 62.6503 9.33594C63.4628 10.0547 63.8691 10.9766 63.8691 12.1016C63.8691 13.2266 63.4628 14.1484 62.6503 14.8672C61.8378 15.5859 60.7831 15.9453 59.4863 15.9453C58.1894 15.9453 57.1347 15.5859 56.3222 14.8672C55.5097 14.1484 55.1034 13.2266 55.1034 12.1016ZM80.5809 37.625V27.1719C80.5809 26.4531 80.4794 25.8359 80.2763 25.3203C80.0731 24.8047 79.7528 24.4062 79.3153 24.125C78.8778 23.8281 78.2919 23.6797 77.5575 23.6797C76.9638 23.6797 76.4559 23.7812 76.0341 23.9844C75.6122 24.1875 75.2919 24.4922 75.0731 24.8984C74.8544 25.3047 74.745 25.8203 74.745 26.4453H66.8466C66.8466 25.2734 67.1044 24.1875 67.62 23.1875C68.1513 22.1719 68.9013 21.2891 69.87 20.5391C70.8544 19.7891 72.0263 19.2109 73.3856 18.8047C74.7606 18.3828 76.2919 18.1719 77.9794 18.1719C79.995 18.1719 81.7919 18.5078 83.37 19.1797C84.9638 19.8516 86.2216 20.8594 87.1434 22.2031C88.0653 23.5312 88.5263 25.2031 88.5263 27.2188V37.6016C88.5263 39.2578 88.62 40.5156 88.8075 41.375C88.995 42.2188 89.2606 42.9609 89.6044 43.6016V44H81.6825C81.3075 43.2188 81.0263 42.2656 80.8388 41.1406C80.6669 40 80.5809 38.8281 80.5809 37.625ZM81.5419 28.5078L81.5888 32.7266H78.0966C77.3622 32.7266 76.7372 32.8281 76.2216 33.0312C75.7216 33.2344 75.3153 33.5156 75.0028 33.875C74.7059 34.2188 74.4872 34.6094 74.3466 35.0469C74.2216 35.4844 74.1591 35.9453 74.1591 36.4297C74.1591 36.8984 74.2684 37.3203 74.4872 37.6953C74.7216 38.0547 75.0341 38.3359 75.4247 38.5391C75.8153 38.7422 76.2528 38.8438 76.7372 38.8438C77.6122 38.8438 78.3544 38.6797 78.9638 38.3516C79.5888 38.0078 80.0653 37.5938 80.3934 37.1094C80.7216 36.625 80.8856 36.1719 80.8856 35.75L82.62 38.9844C82.3075 39.6094 81.9481 40.2422 81.5419 40.8828C81.1513 41.5234 80.6591 42.1172 80.0653 42.6641C79.4872 43.1953 78.7763 43.6328 77.9325 43.9766C77.0888 44.3047 76.0653 44.4688 74.8622 44.4688C73.2997 44.4688 71.8622 44.1484 70.5497 43.5078C69.2528 42.8672 68.2138 41.9766 67.4325 40.8359C66.6513 39.6797 66.2606 38.3516 66.2606 36.8516C66.2606 35.5391 66.495 34.3672 66.9638 33.3359C67.4481 32.3047 68.1747 31.4297 69.1434 30.7109C70.1122 29.9922 71.3466 29.4453 72.8466 29.0703C74.3466 28.6953 76.1122 28.5078 78.1434 28.5078H81.5419ZM105.308 18.6406V24.125H90.0272V18.6406H105.308ZM93.2381 12.3359H101.137V35.7266C101.137 36.3984 101.215 36.9219 101.371 37.2969C101.527 37.6562 101.793 37.9141 102.168 38.0703C102.558 38.2109 103.074 38.2812 103.715 38.2812C104.168 38.2812 104.543 38.2734 104.84 38.2578C105.137 38.2266 105.418 38.1875 105.683 38.1406V43.7891C105.012 44.0078 104.308 44.1719 103.574 44.2812C102.84 44.4062 102.058 44.4688 101.23 44.4688C99.5428 44.4688 98.0975 44.2031 96.8944 43.6719C95.7069 43.1406 94.8006 42.3047 94.1756 41.1641C93.5506 40.0234 93.2381 38.5391 93.2381 36.7109V12.3359ZM105.802 31.5781V31.0859C105.802 29.2266 106.067 27.5156 106.598 25.9531C107.13 24.375 107.911 23.0078 108.942 21.8516C109.973 20.6953 111.247 19.7969 112.762 19.1562C114.278 18.5 116.028 18.1719 118.012 18.1719C120.012 18.1719 121.77 18.5 123.286 19.1562C124.817 19.7969 126.098 20.6953 127.13 21.8516C128.161 23.0078 128.942 24.375 129.473 25.9531C130.005 27.5156 130.27 29.2266 130.27 31.0859V31.5781C130.27 33.4219 130.005 35.1328 129.473 36.7109C128.942 38.2734 128.161 39.6406 127.13 40.8125C126.098 41.9688 124.825 42.8672 123.309 43.5078C121.794 44.1484 120.044 44.4688 118.059 44.4688C116.075 44.4688 114.317 44.1484 112.786 43.5078C111.255 42.8672 109.973 41.9688 108.942 40.8125C107.911 39.6406 107.13 38.2734 106.598 36.7109C106.067 35.1328 105.802 33.4219 105.802 31.5781ZM113.7 31.0859V31.5781C113.7 32.5312 113.77 33.4219 113.911 34.25C114.052 35.0781 114.286 35.8047 114.614 36.4297C114.942 37.0391 115.387 37.5156 115.95 37.8594C116.512 38.2031 117.216 38.375 118.059 38.375C118.887 38.375 119.575 38.2031 120.122 37.8594C120.684 37.5156 121.13 37.0391 121.458 36.4297C121.786 35.8047 122.02 35.0781 122.161 34.25C122.302 33.4219 122.372 32.5312 122.372 31.5781V31.0859C122.372 30.1641 122.302 29.2969 122.161 28.4844C122.02 27.6562 121.786 26.9297 121.458 26.3047C121.13 25.6641 120.684 25.1641 120.122 24.8047C119.559 24.4453 118.856 24.2656 118.012 24.2656C117.184 24.2656 116.489 24.4453 115.927 24.8047C115.38 25.1641 114.942 25.6641 114.614 26.3047C114.286 26.9297 114.052 27.6562 113.911 28.4844C113.77 29.2969 113.7 30.1641 113.7 31.0859ZM146.115 36.875C146.115 36.4375 145.967 36.0625 145.67 35.75C145.388 35.4219 144.888 35.125 144.17 34.8594C143.451 34.5781 142.443 34.2969 141.146 34.0156C139.912 33.75 138.748 33.3984 137.654 32.9609C136.576 32.5234 135.631 31.9922 134.818 31.3672C134.006 30.7422 133.365 30 132.896 29.1406C132.443 28.2812 132.217 27.2969 132.217 26.1875C132.217 25.1094 132.443 24.0938 132.896 23.1406C133.365 22.1719 134.045 21.3203 134.935 20.5859C135.842 19.8359 136.943 19.25 138.24 18.8281C139.537 18.3906 141.013 18.1719 142.67 18.1719C144.951 18.1719 146.92 18.5234 148.576 19.2266C150.232 19.9141 151.506 20.8828 152.396 22.1328C153.303 23.3672 153.756 24.7969 153.756 26.4219H145.857C145.857 25.7812 145.748 25.2344 145.529 24.7812C145.326 24.3281 144.99 23.9844 144.521 23.75C144.053 23.5 143.428 23.375 142.646 23.375C142.099 23.375 141.599 23.4766 141.146 23.6797C140.709 23.8828 140.357 24.1641 140.092 24.5234C139.826 24.8828 139.693 25.3047 139.693 25.7891C139.693 26.1328 139.771 26.4453 139.928 26.7266C140.099 26.9922 140.357 27.2422 140.701 27.4766C141.045 27.6953 141.482 27.8984 142.013 28.0859C142.545 28.2578 143.185 28.4141 143.935 28.5547C145.638 28.8672 147.232 29.3125 148.717 29.8906C150.201 30.4688 151.404 31.2891 152.326 32.3516C153.263 33.4141 153.732 34.8438 153.732 36.6406C153.732 37.7656 153.474 38.8047 152.959 39.7578C152.443 40.6953 151.701 41.5234 150.732 42.2422C149.763 42.9453 148.599 43.4922 147.24 43.8828C145.881 44.2734 144.349 44.4688 142.646 44.4688C140.224 44.4688 138.178 44.0391 136.506 43.1797C134.834 42.3047 133.568 41.2109 132.709 39.8984C131.865 38.5703 131.443 37.2266 131.443 35.8672H138.803C138.834 36.6484 139.021 37.2891 139.365 37.7891C139.724 38.2891 140.201 38.6562 140.795 38.8906C141.388 39.125 142.076 39.2422 142.857 39.2422C143.576 39.2422 144.17 39.1406 144.638 38.9375C145.123 38.7344 145.49 38.4609 145.74 38.1172C145.99 37.7578 146.115 37.3438 146.115 36.875ZM164.819 8V44H156.897V8H164.819ZM181.906 37.625V27.1719C181.906 26.4531 181.804 25.8359 181.601 25.3203C181.398 24.8047 181.078 24.4062 180.64 24.125C180.203 23.8281 179.617 23.6797 178.883 23.6797C178.289 23.6797 177.781 23.7812 177.359 23.9844C176.937 24.1875 176.617 24.4922 176.398 24.8984C176.179 25.3047 176.07 25.8203 176.07 26.4453H168.172C168.172 25.2734 168.429 24.1875 168.945 23.1875C169.476 22.1719 170.226 21.2891 171.195 20.5391C172.179 19.7891 173.351 19.2109 174.711 18.8047C176.086 18.3828 177.617 18.1719 179.304 18.1719C181.32 18.1719 183.117 18.5078 184.695 19.1797C186.289 19.8516 187.547 20.8594 188.468 22.2031C189.39 23.5312 189.851 25.2031 189.851 27.2188V37.6016C189.851 39.2578 189.945 40.5156 190.133 41.375C190.32 42.2188 190.586 42.9609 190.929 43.6016V44H183.008C182.633 43.2188 182.351 42.2656 182.164 41.1406C181.992 40 181.906 38.8281 181.906 37.625ZM182.867 28.5078L182.914 32.7266H179.422C178.687 32.7266 178.062 32.8281 177.547 33.0312C177.047 33.2344 176.64 33.5156 176.328 33.875C176.031 34.2188 175.812 34.6094 175.672 35.0469C175.547 35.4844 175.484 35.9453 175.484 36.4297C175.484 36.8984 175.593 37.3203 175.812 37.6953C176.047 38.0547 176.359 38.3359 176.75 38.5391C177.14 38.7422 177.578 38.8438 178.062 38.8438C178.937 38.8438 179.679 38.6797 180.289 38.3516C180.914 38.0078 181.39 37.5938 181.718 37.1094C182.047 36.625 182.211 36.1719 182.211 35.75L183.945 38.9844C183.633 39.6094 183.273 40.2422 182.867 40.8828C182.476 41.5234 181.984 42.1172 181.39 42.6641C180.812 43.1953 180.101 43.6328 179.258 43.9766C178.414 44.3047 177.39 44.4688 176.187 44.4688C174.625 44.4688 173.187 44.1484 171.875 43.5078C170.578 42.8672 169.539 41.9766 168.758 40.8359C167.976 39.6797 167.586 38.3516 167.586 36.8516C167.586 35.5391 167.82 34.3672 168.289 33.3359C168.773 32.3047 169.5 31.4297 170.468 30.7109C171.437 29.9922 172.672 29.4453 174.172 29.0703C175.672 28.6953 177.437 28.5078 179.468 28.5078H182.867ZM202.04 38.5859L207.032 18.6406H215.352L207.055 44H202.133L202.04 38.5859ZM199.087 18.6406L204.008 38.5859L203.962 44H199.016L190.743 18.6406H199.087Z" fill="#59437A"/>
<path d="M146.391 76.2148V77.3672C146.391 79.5417 146.085 81.4948 145.473 83.2266C144.874 84.9453 144.022 86.4167 142.915 87.6406C141.808 88.8516 140.499 89.7826 138.989 90.4336C137.479 91.0716 135.812 91.3906 133.989 91.3906C132.153 91.3906 130.473 91.0716 128.95 90.4336C127.44 89.7826 126.124 88.8516 125.005 87.6406C123.898 86.4167 123.039 84.9453 122.427 83.2266C121.828 81.4948 121.528 79.5417 121.528 77.3672V76.2148C121.528 74.0404 121.828 72.0872 122.427 70.3555C123.039 68.6237 123.891 67.1523 124.985 65.9414C126.092 64.7174 127.401 63.7865 128.911 63.1484C130.434 62.4974 132.114 62.1719 133.95 62.1719C135.773 62.1719 137.44 62.4974 138.95 63.1484C140.473 63.7865 141.789 64.7174 142.895 65.9414C144.002 67.1523 144.861 68.6237 145.473 70.3555C146.085 72.0872 146.391 74.0404 146.391 76.2148ZM139.438 77.3672V76.1758C139.438 74.7695 139.315 73.5326 139.067 72.4648C138.833 71.3841 138.481 70.4792 138.012 69.75C137.544 69.0208 136.964 68.474 136.274 68.1094C135.597 67.7318 134.822 67.543 133.95 67.543C133.039 67.543 132.244 67.7318 131.567 68.1094C130.89 68.474 130.324 69.0208 129.868 69.75C129.412 70.4792 129.067 71.3841 128.833 72.4648C128.611 73.5326 128.501 74.7695 128.501 76.1758V77.3672C128.501 78.7604 128.611 79.9974 128.833 81.0781C129.067 82.1458 129.412 83.0508 129.868 83.793C130.337 84.5352 130.91 85.0951 131.587 85.4727C132.277 85.8503 133.078 86.0391 133.989 86.0391C134.861 86.0391 135.636 85.8503 136.313 85.4727C136.99 85.0951 137.557 84.5352 138.012 83.793C138.481 83.0508 138.833 82.1458 139.067 81.0781C139.315 79.9974 139.438 78.7604 139.438 77.3672ZM155.787 61V91H149.185V61H155.787ZM169.284 91.3906C167.565 91.3906 166.028 91.1237 164.674 90.5898C163.32 90.043 162.174 89.2943 161.237 88.3438C160.312 87.3932 159.603 86.2995 159.108 85.0625C158.626 83.8255 158.385 82.5169 158.385 81.1367V80.3945C158.385 78.8451 158.6 77.4128 159.03 76.0977C159.459 74.7695 160.097 73.6107 160.944 72.6211C161.79 71.6315 162.851 70.8633 164.127 70.3164C165.403 69.7565 166.888 69.4766 168.58 69.4766C170.078 69.4766 171.419 69.7174 172.604 70.1992C173.789 70.681 174.791 71.3711 175.612 72.2695C176.445 73.168 177.077 74.2552 177.506 75.5312C177.949 76.8073 178.17 78.2396 178.17 79.8281V82.5039H160.905V78.3828H171.745V77.875C171.758 77.1719 171.634 76.5729 171.373 76.0781C171.126 75.5833 170.761 75.2057 170.28 74.9453C169.798 74.6849 169.212 74.5547 168.522 74.5547C167.806 74.5547 167.213 74.7109 166.745 75.0234C166.289 75.3359 165.931 75.7656 165.67 76.3125C165.423 76.8464 165.247 77.4648 165.143 78.168C165.039 78.8711 164.987 79.6133 164.987 80.3945V81.1367C164.987 81.918 165.091 82.6276 165.299 83.2656C165.521 83.9036 165.833 84.4505 166.237 84.9062C166.653 85.349 167.148 85.694 167.721 85.9414C168.307 86.1888 168.971 86.3125 169.713 86.3125C170.612 86.3125 171.497 86.1432 172.37 85.8047C173.242 85.4661 173.991 84.9062 174.616 84.125L177.604 87.6797C177.174 88.2917 176.562 88.8841 175.768 89.457C174.987 90.0299 174.049 90.4987 172.955 90.8633C171.862 91.2148 170.638 91.3906 169.284 91.3906ZM186.687 60.9805V91H180.105V60.9805H186.687ZM200.202 69.8672L191.023 80.6289L186.218 85.4336L183.347 81.2539L187.351 76.0391L192.312 69.8672H200.202ZM193.152 91L187.507 81.3711L192.37 77.9141L200.691 91H193.152ZM212.195 85.0625C212.195 84.6979 212.072 84.3854 211.824 84.125C211.59 83.8516 211.173 83.6042 210.574 83.3828C209.975 83.1484 209.135 82.9141 208.055 82.6797C207.026 82.4583 206.056 82.1654 205.145 81.8008C204.246 81.4362 203.458 80.9935 202.781 80.4727C202.104 79.9518 201.57 79.3333 201.18 78.6172C200.802 77.901 200.613 77.0807 200.613 76.1562C200.613 75.2578 200.802 74.4115 201.18 73.6172C201.57 72.8099 202.137 72.1003 202.879 71.4883C203.634 70.8633 204.552 70.375 205.633 70.0234C206.714 69.6589 207.944 69.4766 209.324 69.4766C211.225 69.4766 212.866 69.7695 214.246 70.3555C215.626 70.9284 216.688 71.7357 217.43 72.7773C218.185 73.806 218.562 74.9974 218.562 76.3516H211.98C211.98 75.8177 211.889 75.362 211.707 74.9844C211.538 74.6068 211.258 74.3203 210.867 74.125C210.477 73.9167 209.956 73.8125 209.305 73.8125C208.849 73.8125 208.432 73.8971 208.055 74.0664C207.69 74.2357 207.397 74.4701 207.176 74.7695C206.954 75.069 206.844 75.4206 206.844 75.8242C206.844 76.1107 206.909 76.3711 207.039 76.6055C207.182 76.8268 207.397 77.0352 207.684 77.2305C207.97 77.4128 208.335 77.582 208.777 77.7383C209.22 77.8815 209.754 78.0117 210.379 78.1289C211.798 78.3893 213.126 78.7604 214.363 79.2422C215.6 79.724 216.603 80.4076 217.371 81.293C218.152 82.1784 218.543 83.3698 218.543 84.8672C218.543 85.8047 218.328 86.6706 217.898 87.4648C217.469 88.2461 216.85 88.9362 216.043 89.5352C215.236 90.1211 214.266 90.5768 213.133 90.9023C212 91.2279 210.724 91.3906 209.305 91.3906C207.286 91.3906 205.581 91.0326 204.188 90.3164C202.794 89.5872 201.74 88.6758 201.023 87.582C200.32 86.4753 199.969 85.3555 199.969 84.2227H206.102C206.128 84.8737 206.284 85.4076 206.57 85.8242C206.87 86.2409 207.267 86.5469 207.762 86.7422C208.257 86.9375 208.829 87.0352 209.48 87.0352C210.079 87.0352 210.574 86.9505 210.965 86.7812C211.368 86.612 211.674 86.3841 211.883 86.0977C212.091 85.7982 212.195 85.4531 212.195 85.0625ZM227.782 69.8672V91H221.18V69.8672H227.782ZM220.79 64.418C220.79 63.4805 221.128 62.7122 221.805 62.1133C222.483 61.5143 223.361 61.2148 224.442 61.2148C225.523 61.2148 226.402 61.5143 227.079 62.1133C227.756 62.7122 228.095 63.4805 228.095 64.418C228.095 65.3555 227.756 66.1237 227.079 66.7227C226.402 67.3216 225.523 67.6211 224.442 67.6211C223.361 67.6211 222.483 67.3216 221.805 66.7227C221.128 66.1237 220.79 65.3555 220.79 64.418ZM237.998 69.8672V91H231.396V69.8672H237.998ZM231.005 64.418C231.005 63.4805 231.344 62.7122 232.021 62.1133C232.698 61.5143 233.577 61.2148 234.658 61.2148C235.739 61.2148 236.617 61.5143 237.295 62.1133C237.972 62.7122 238.31 63.4805 238.31 64.418C238.31 65.3555 237.972 66.1237 237.295 66.7227C236.617 67.3216 235.739 67.6211 234.658 67.6211C233.577 67.6211 232.698 67.3216 232.021 66.7227C231.344 66.1237 231.005 65.3555 231.005 64.418ZM251.495 91.3906C249.776 91.3906 248.239 91.1237 246.885 90.5898C245.531 90.043 244.385 89.2943 243.448 88.3438C242.523 87.3932 241.814 86.2995 241.319 85.0625C240.837 83.8255 240.596 82.5169 240.596 81.1367V80.3945C240.596 78.8451 240.811 77.4128 241.241 76.0977C241.67 74.7695 242.308 73.6107 243.155 72.6211C244.001 71.6315 245.062 70.8633 246.338 70.3164C247.614 69.7565 249.099 69.4766 250.791 69.4766C252.289 69.4766 253.63 69.7174 254.815 70.1992C256 70.681 257.002 71.3711 257.823 72.2695C258.656 73.168 259.288 74.2552 259.717 75.5312C260.16 76.8073 260.381 78.2396 260.381 79.8281V82.5039H243.116V78.3828H253.955V77.875C253.968 77.1719 253.845 76.5729 253.584 76.0781C253.337 75.5833 252.972 75.2057 252.491 74.9453C252.009 74.6849 251.423 74.5547 250.733 74.5547C250.017 74.5547 249.424 74.7109 248.955 75.0234C248.5 75.3359 248.142 75.7656 247.881 76.3125C247.634 76.8464 247.458 77.4648 247.354 78.168C247.25 78.8711 247.198 79.6133 247.198 80.3945V81.1367C247.198 81.918 247.302 82.6276 247.51 83.2656C247.732 83.9036 248.044 84.4505 248.448 84.9062C248.864 85.349 249.359 85.694 249.932 85.9414C250.518 86.1888 251.182 86.3125 251.924 86.3125C252.823 86.3125 253.708 86.1432 254.58 85.8047C255.453 85.4661 256.202 84.9062 256.827 84.125L259.815 87.6797C259.385 88.2917 258.773 88.8841 257.979 89.457C257.198 90.0299 256.26 90.4987 255.166 90.8633C254.073 91.2148 252.849 91.3906 251.495 91.3906ZM268.722 74.3789V91H262.14V69.8672H268.312L268.722 74.3789ZM267.941 79.7109L266.398 79.75C266.398 78.1354 266.593 76.6966 266.984 75.4336C267.374 74.1576 267.928 73.0768 268.644 72.1914C269.36 71.306 270.213 70.6354 271.202 70.1797C272.205 69.7109 273.318 69.4766 274.542 69.4766C275.519 69.4766 276.411 69.6198 277.218 69.9062C278.038 70.1927 278.741 70.6549 279.327 71.293C279.926 71.931 280.382 72.7773 280.695 73.832C281.02 74.8737 281.183 76.1628 281.183 77.6992V91H274.562V77.6797C274.562 76.8333 274.445 76.1888 274.21 75.7461C273.976 75.2904 273.637 74.9779 273.195 74.8086C272.752 74.6393 272.211 74.5547 271.573 74.5547C270.896 74.5547 270.323 74.6849 269.855 74.9453C269.386 75.2057 269.008 75.5703 268.722 76.0391C268.448 76.4948 268.247 77.0352 268.116 77.6602C267.999 78.2852 267.941 78.9688 267.941 79.7109ZM290.676 60.9805V91H284.094V60.9805H290.676ZM304.191 69.8672L295.012 80.6289L290.207 85.4336L287.336 81.2539L291.34 76.0391L296.301 69.8672H304.191ZM297.141 91L291.496 81.3711L296.359 77.9141L304.68 91H297.141ZM304.29 80.6484V80.2383C304.29 78.6888 304.511 77.263 304.954 75.9609C305.397 74.6458 306.048 73.5065 306.907 72.543C307.766 71.5794 308.828 70.8307 310.091 70.2969C311.354 69.75 312.812 69.4766 314.466 69.4766C316.132 69.4766 317.597 69.75 318.86 70.2969C320.136 70.8307 321.204 71.5794 322.063 72.543C322.923 73.5065 323.574 74.6458 324.016 75.9609C324.459 77.263 324.68 78.6888 324.68 80.2383V80.6484C324.68 82.1849 324.459 83.6107 324.016 84.9258C323.574 86.2279 322.923 87.3672 322.063 88.3438C321.204 89.3073 320.143 90.056 318.88 90.5898C317.617 91.1237 316.158 91.3906 314.505 91.3906C312.851 91.3906 311.386 91.1237 310.11 90.5898C308.834 90.056 307.766 89.3073 306.907 88.3438C306.048 87.3672 305.397 86.2279 304.954 84.9258C304.511 83.6107 304.29 82.1849 304.29 80.6484ZM310.872 80.2383V80.6484C310.872 81.4427 310.93 82.1849 311.048 82.875C311.165 83.5651 311.36 84.1706 311.634 84.6914C311.907 85.1992 312.278 85.5964 312.747 85.8828C313.216 86.1693 313.802 86.3125 314.505 86.3125C315.195 86.3125 315.768 86.1693 316.223 85.8828C316.692 85.5964 317.063 85.1992 317.337 84.6914C317.61 84.1706 317.805 83.5651 317.923 82.875C318.04 82.1849 318.098 81.4427 318.098 80.6484V80.2383C318.098 79.4701 318.04 78.7474 317.923 78.0703C317.805 77.3802 317.61 76.7747 317.337 76.2539C317.063 75.7201 316.692 75.3034 316.223 75.0039C315.755 74.7044 315.169 74.5547 314.466 74.5547C313.776 74.5547 313.196 74.7044 312.727 75.0039C312.272 75.3034 311.907 75.7201 311.634 76.2539C311.36 76.7747 311.165 77.3802 311.048 78.0703C310.93 78.7474 310.872 79.4701 310.872 80.2383Z" fill="#59437A"/>
</svg>
