<svg width="41" height="40" viewBox="0 0 41 40" fill="none" xmlns="http://www.w3.org/2000/svg">
<g clip-path="url(#clip0_19_415)">
<path d="M20.5929 38.958C9.90693 38.958 1.24431 30.4807 1.24431 20.0233C1.24431 9.56595 9.90693 1.08862 20.5929 1.08862C31.2788 1.08862 39.9414 9.56595 39.9414 20.0233C39.9414 30.4807 31.2788 38.958 20.5929 38.958Z" stroke="#C262AF" stroke-width="1.5" stroke-miterlimit="10"/>
<path d="M35.4271 12.6804C35.0712 11.367 34.024 10.3322 32.6921 9.98396C30.2722 9.34717 20.5929 9.34717 20.5929 9.34717C20.5929 9.34717 10.9033 9.34717 8.49366 9.98396C7.16173 10.3322 6.11449 11.367 5.75863 12.6804C5.10792 15.0584 5.10792 20.0234 5.10792 20.0234C5.10792 20.0234 5.10792 24.9884 5.75863 27.3665C6.11449 28.6799 7.16173 29.7146 8.49366 30.0629C10.9135 30.6997 20.5929 30.6997 20.5929 30.6997C20.5929 30.6997 30.2824 30.6997 32.6921 30.0629C34.024 29.7146 35.0712 28.6799 35.4271 27.3665C36.0778 24.9884 36.0778 20.0234 36.0778 20.0234C36.0778 20.0234 36.0778 15.0584 35.4271 12.6804Z" fill="#C262AF"/>
<path d="M17.4308 24.5307V15.5161L25.524 20.0234L17.4308 24.5307Z" fill="white"/>
</g>
<defs>
<clipPath id="clip0_19_415">
<rect width="40.2222" height="39.3619" fill="white" transform="translate(0.48175 0.342285)"/>
</clipPath>
</defs>
</svg>
